<svg xmlns="http://www.w3.org/2000/svg" viewBox="0 0 201.11 201.11"><defs><style>.cls-1{fill:#fffcfc;}.cls-2{fill:#055a5e;fill-rule:evenodd;}</style></defs><title>Asset 8</title><g id="Layer_2" data-name="Layer 2"><g id="Layer_1-2" data-name="Layer 1"><circle class="cls-1" cx="100.55" cy="100.55" r="100.55"/><path class="cls-2" d="M61.47,88.28l-7.09,7.09S51,97.53,48.43,87.44s.42-8.83.42-8.83,6.69-7.31,7.73-8.34,6.78-8.54,7.92-10a92.5,92.5,0,0,0,6.47-10c1.4-2.84,3.51-6.08,4.59-10.26s.58-10.82.22-12.48C75,23.91,69,19,69,18.92s9,2.41,13.8,3.27a120.15,120.15,0,0,0,13.7,1.48,49.12,49.12,0,0,1,22.22,6.89A53.5,53.5,0,0,1,134,44.76c4.86,6.76,7.25,13.3,9.31,23.21a55.34,55.34,0,0,1-1.53,30.28c-2.9,9.22-6.91,18-11,28.67a83.94,83.94,0,0,0-3.27,13.13c-.48,3.33-.42,6,.92,6.35,4.06.93,12.68,2.94,15.76,4.59a21.19,21.19,0,0,1,7.51,7,17.9,17.9,0,0,1,2,4.44c0,.2-96.86.09-96.86.09a11.63,11.63,0,0,1,.75-3c.81-1.9,2.27-3,5.05-4.52a57.41,57.41,0,0,1,8.91-3.52,51.46,51.46,0,0,1,9.47-2,82.89,82.89,0,0,1,9.37-.49c4.23,0,9.76-.48,9.1-1.09a26.47,26.47,0,0,1-4.94-6.13,18.66,18.66,0,0,1-2.5-9.71,32.92,32.92,0,0,1,2.47-12,72.79,72.79,0,0,1,6-11.81c1.37-2.27,9.23-14.49,11.77-18.13s8.6-14.84,9.6-18,1.34-8.89-.75-13.05c-1.67-3.35-4.65-5.66-7.85-7.54-1.35-.79-2.73-1.5-4.08-2.18,0,0,2.63,2.46,4,4s3.5,7,3.68,8.77a23.11,23.11,0,0,1-2,12.08A70,70,0,0,1,108.1,86c-2.68,3.81-5.7,7.5-8.6,11.29a92.91,92.91,0,0,0-6.91,10.08,62.28,62.28,0,0,0-5.26,11.06,37,37,0,0,0-1.2,10.09c.1,3.22,1.23,6.6,1.88,9.07a33.94,33.94,0,0,0,2.49,5.86A118.76,118.76,0,0,1,80.24,131.1c-4.67-6.28-8-13.44-6.26-21a33.92,33.92,0,0,1,4.35-10.7c2.92-4.64,6.85-8.38,11.54-12.58,3.67-3.29,7.19-6.42,8.84-9,2-3,3.07-4.7,3.41-7.11a35.34,35.34,0,0,0,.19-8.12,9,9,0,0,0-1.64-4.83,48.69,48.69,0,0,1-3.1,8.82C96.13,69.31,93,72,89.53,74A21.54,21.54,0,0,1,81.38,77a13.79,13.79,0,0,0-5.74,2.14A8.09,8.09,0,0,0,73,82.78a34.65,34.65,0,0,1-1.79,5c-.45.72-1.8,2.38-2.07,2.71a10,10,0,0,0-.24,2.66s-1.52,2.17-3.22,2.38-5.56.24-5.8-.38a8.85,8.85,0,0,1,0-3.43C60.11,91,61.47,88.28,61.47,88.28Z"/><polygon class="cls-2" points="153.7 170.78 153.7 182.19 56.84 181.76 56.84 170.79 153.7 170.78"/></g></g></svg>